<svg xmlns="http://www.w3.org/2000/svg" viewBox="0 0 120 120" width="120" height="120">
  <defs>
    <linearGradient id="g" x1="0" y1="0" x2="0" y2="1">
      <stop offset="0" stop-color="#ffd9e4"/><stop offset="1" stop-color="#fb7199"/>
    </linearGradient>
  </defs>
  <rect x="4" y="4" width="112" height="112" rx="30" fill="url(#g)"/>
  <rect x="4" y="4" width="112" height="56" rx="30" fill="#fff" opacity="0.18"/>
  <path d="M40 50 c0 -8 -16 -8 -16 2 c0 8 16 16 16 16 c0 0 16 -8 16 -16 c0 -10 -16 -10 -16 -2z" fill="#e11d63"/>
  <path d="M80 50 c0 -8 -16 -8 -16 2 c0 8 16 16 16 16 c0 0 16 -8 16 -16 c0 -10 -16 -10 -16 -2z" fill="#e11d63"/>
  <path d="M40 84 q20 16 40 0" fill="none" stroke="#7a1330" stroke-width="6" stroke-linecap="round"/>
</svg>
